<mxfile host="app.diagrams.net" modified="2023-08-23T14:51:36.394Z" agent="Mozilla/5.0 (Windows NT 10.0; Win64; x64) AppleWebKit/537.36 (KHTML, like Gecko) Chrome/116.0.0.0 Safari/537.36 Edg/116.0.1938.54" etag="YX45jQSeJ3HTsjkB_Kma" version="21.6.6" type="github">
  <diagram name="Page-1" id="q-z3yVoCB1BrfX7OkZOF">
    <mxGraphModel dx="1597" dy="608" grid="1" gridSize="10" guides="1" tooltips="1" connect="1" arrows="1" fold="1" page="1" pageScale="1" pageWidth="850" pageHeight="1100" math="0" shadow="0">
      <root>
        <mxCell id="0" />
        <mxCell id="1" parent="0" />
        <mxCell id="sYTXp0v7S61ZIRMOEMoK-14" value="Batch&lt;br&gt;&lt;br&gt;&lt;br&gt;&lt;br&gt;&lt;br&gt;&lt;br&gt;&lt;br&gt;&lt;br&gt;" style="rounded=1;whiteSpace=wrap;html=1;fillColor=#fff2cc;strokeColor=#d6b656;" vertex="1" parent="1">
          <mxGeometry x="165" y="620" width="110" height="130" as="geometry" />
        </mxCell>
        <mxCell id="sYTXp0v7S61ZIRMOEMoK-11" value="GT label data sampler&lt;br&gt;&lt;br&gt;&lt;br&gt;&lt;br&gt;&lt;br&gt;&lt;br&gt;&lt;br&gt;&lt;br&gt;&lt;br&gt;&lt;br&gt;" style="rounded=1;whiteSpace=wrap;html=1;fillColor=#fff2cc;strokeColor=#d6b656;" vertex="1" parent="1">
          <mxGeometry x="60" y="400" width="140" height="160" as="geometry" />
        </mxCell>
        <mxCell id="sYTXp0v7S61ZIRMOEMoK-10" value="Pseudo-label data sampler&lt;br&gt;&lt;br&gt;&lt;br&gt;&lt;br&gt;&lt;br&gt;&lt;br&gt;&lt;br&gt;&lt;br&gt;&lt;br&gt;" style="rounded=1;whiteSpace=wrap;html=1;fillColor=#fff2cc;strokeColor=#d6b656;" vertex="1" parent="1">
          <mxGeometry x="240" y="400" width="140" height="160" as="geometry" />
        </mxCell>
        <mxCell id="sYTXp0v7S61ZIRMOEMoK-8" value="" style="whiteSpace=wrap;html=1;aspect=fixed;fillColor=#f8cecc;strokeColor=#b85450;" vertex="1" parent="1">
          <mxGeometry x="85" y="440" width="80" height="80" as="geometry" />
        </mxCell>
        <mxCell id="sYTXp0v7S61ZIRMOEMoK-9" value="" style="whiteSpace=wrap;html=1;aspect=fixed;fillColor=#f8cecc;strokeColor=#b85450;" vertex="1" parent="1">
          <mxGeometry x="95" y="450" width="80" height="80" as="geometry" />
        </mxCell>
        <mxCell id="sYTXp0v7S61ZIRMOEMoK-16" value="" style="endArrow=classic;html=1;rounded=0;exitX=0.5;exitY=1;exitDx=0;exitDy=0;" edge="1" parent="1" source="sYTXp0v7S61ZIRMOEMoK-10">
          <mxGeometry width="50" height="50" relative="1" as="geometry">
            <mxPoint x="290" y="570" as="sourcePoint" />
            <mxPoint x="240" y="620" as="targetPoint" />
            <Array as="points">
              <mxPoint x="310" y="590" />
              <mxPoint x="240" y="590" />
            </Array>
          </mxGeometry>
        </mxCell>
        <mxCell id="sYTXp0v7S61ZIRMOEMoK-17" value="" style="endArrow=classic;html=1;rounded=0;entryX=0.32;entryY=-0.001;entryDx=0;entryDy=0;exitX=0.5;exitY=1;exitDx=0;exitDy=0;entryPerimeter=0;" edge="1" parent="1" source="sYTXp0v7S61ZIRMOEMoK-11" target="sYTXp0v7S61ZIRMOEMoK-14">
          <mxGeometry width="50" height="50" relative="1" as="geometry">
            <mxPoint x="60" y="630" as="sourcePoint" />
            <mxPoint x="110" y="580" as="targetPoint" />
            <Array as="points">
              <mxPoint x="130" y="590" />
              <mxPoint x="200" y="590" />
            </Array>
          </mxGeometry>
        </mxCell>
        <mxCell id="sYTXp0v7S61ZIRMOEMoK-21" value="Train&lt;br&gt;&lt;br&gt;&lt;br&gt;&lt;br&gt;&lt;br&gt;&lt;br&gt;&lt;br&gt;" style="rounded=1;whiteSpace=wrap;html=1;fillColor=#fff2cc;strokeColor=#d6b656;" vertex="1" parent="1">
          <mxGeometry x="400" y="620" width="130" height="130" as="geometry" />
        </mxCell>
        <mxCell id="sYTXp0v7S61ZIRMOEMoK-22" value="" style="endArrow=classic;html=1;rounded=0;exitX=1;exitY=0.5;exitDx=0;exitDy=0;entryX=0;entryY=0.5;entryDx=0;entryDy=0;" edge="1" parent="1" source="sYTXp0v7S61ZIRMOEMoK-14" target="sYTXp0v7S61ZIRMOEMoK-21">
          <mxGeometry width="50" height="50" relative="1" as="geometry">
            <mxPoint x="320" y="690" as="sourcePoint" />
            <mxPoint x="370" y="640" as="targetPoint" />
          </mxGeometry>
        </mxCell>
        <mxCell id="sYTXp0v7S61ZIRMOEMoK-23" value="DiffusionDet&lt;br&gt;&lt;br&gt;&lt;br&gt;&lt;br&gt;" style="rounded=1;whiteSpace=wrap;html=1;fillColor=#fff2cc;strokeColor=#d6b656;" vertex="1" parent="1">
          <mxGeometry x="410" y="660" width="110" height="80" as="geometry" />
        </mxCell>
        <mxCell id="sYTXp0v7S61ZIRMOEMoK-26" value="" style="rounded=0;whiteSpace=wrap;html=1;fillColor=#ffe6cc;strokeColor=#d79b00;" vertex="1" parent="1">
          <mxGeometry x="255" y="440" width="80" height="50" as="geometry" />
        </mxCell>
        <mxCell id="sYTXp0v7S61ZIRMOEMoK-27" value="" style="rounded=0;whiteSpace=wrap;html=1;fillColor=#ffe6cc;strokeColor=#d79b00;" vertex="1" parent="1">
          <mxGeometry x="265" y="450" width="80" height="60" as="geometry" />
        </mxCell>
        <mxCell id="sYTXp0v7S61ZIRMOEMoK-28" value="" style="rounded=0;whiteSpace=wrap;html=1;fillColor=#ffe6cc;strokeColor=#d79b00;rotation=90;" vertex="1" parent="1">
          <mxGeometry x="261" y="475" width="80" height="50" as="geometry" />
        </mxCell>
        <mxCell id="sYTXp0v7S61ZIRMOEMoK-32" value="" style="shape=image;html=1;verticalAlign=top;verticalLabelPosition=bottom;labelBackgroundColor=#ffffff;imageAspect=0;aspect=fixed;image=https://cdn4.iconfinder.com/data/icons/transportation-190/1000/transport_automobile_auto_sedan_car_transportation_vehicle-128.png" vertex="1" parent="1">
          <mxGeometry x="101" y="490" width="34" height="34" as="geometry" />
        </mxCell>
        <mxCell id="sYTXp0v7S61ZIRMOEMoK-33" value="" style="shape=image;html=1;verticalAlign=top;verticalLabelPosition=bottom;labelBackgroundColor=#ffffff;imageAspect=0;aspect=fixed;image=https://cdn4.iconfinder.com/data/icons/transportation-190/1000/transportation_cabrio_automobile_cabriolet_car_vehicle_cab-128.png" vertex="1" parent="1">
          <mxGeometry x="276" y="460" width="50" height="50" as="geometry" />
        </mxCell>
        <mxCell id="sYTXp0v7S61ZIRMOEMoK-35" value="" style="rounded=0;whiteSpace=wrap;html=1;fillColor=none;dashed=1;" vertex="1" parent="1">
          <mxGeometry x="101" y="497" width="39" height="20" as="geometry" />
        </mxCell>
        <mxCell id="sYTXp0v7S61ZIRMOEMoK-36" value="" style="rounded=0;whiteSpace=wrap;html=1;fillColor=none;dashed=1;" vertex="1" parent="1">
          <mxGeometry x="281.5" y="475" width="39" height="20" as="geometry" />
        </mxCell>
        <mxCell id="sYTXp0v7S61ZIRMOEMoK-37" value="Actor" style="shape=umlActor;verticalLabelPosition=bottom;verticalAlign=top;outlineConnect=0;align=center;labelPosition=center;fontSize=1;" vertex="1" parent="1">
          <mxGeometry x="150" y="465" width="10" height="25" as="geometry" />
        </mxCell>
        <mxCell id="sYTXp0v7S61ZIRMOEMoK-38" value="Actor" style="shape=umlActor;verticalLabelPosition=bottom;verticalAlign=top;outlineConnect=0;align=center;labelPosition=center;fontSize=1;" vertex="1" parent="1">
          <mxGeometry x="309" y="505" width="10" height="25" as="geometry" />
        </mxCell>
        <mxCell id="sYTXp0v7S61ZIRMOEMoK-39" value="" style="rounded=0;whiteSpace=wrap;html=1;fillColor=none;dashed=1;" vertex="1" parent="1">
          <mxGeometry x="307.5" y="500" width="13" height="35" as="geometry" />
        </mxCell>
        <mxCell id="sYTXp0v7S61ZIRMOEMoK-40" value="" style="rounded=0;whiteSpace=wrap;html=1;fillColor=none;dashed=1;" vertex="1" parent="1">
          <mxGeometry x="148.5" y="460" width="13" height="35" as="geometry" />
        </mxCell>
        <mxCell id="sYTXp0v7S61ZIRMOEMoK-46" value="" style="rounded=0;whiteSpace=wrap;html=1;fillColor=#ffe6cc;strokeColor=#d79b00;rotation=90;" vertex="1" parent="1">
          <mxGeometry x="159.5" y="663.5" width="80" height="50" as="geometry" />
        </mxCell>
        <mxCell id="sYTXp0v7S61ZIRMOEMoK-47" value="" style="rounded=0;whiteSpace=wrap;html=1;fillColor=none;dashed=1;" vertex="1" parent="1">
          <mxGeometry x="180" y="669" width="39" height="20" as="geometry" />
        </mxCell>
        <mxCell id="sYTXp0v7S61ZIRMOEMoK-41" value="" style="whiteSpace=wrap;html=1;aspect=fixed;fillColor=#f8cecc;strokeColor=#b85450;" vertex="1" parent="1">
          <mxGeometry x="184" y="659" width="80" height="80" as="geometry" />
        </mxCell>
        <mxCell id="sYTXp0v7S61ZIRMOEMoK-42" value="" style="shape=image;html=1;verticalAlign=top;verticalLabelPosition=bottom;labelBackgroundColor=#ffffff;imageAspect=0;aspect=fixed;image=https://cdn4.iconfinder.com/data/icons/transportation-190/1000/transport_automobile_auto_sedan_car_transportation_vehicle-128.png" vertex="1" parent="1">
          <mxGeometry x="190" y="699" width="34" height="34" as="geometry" />
        </mxCell>
        <mxCell id="sYTXp0v7S61ZIRMOEMoK-43" value="" style="rounded=0;whiteSpace=wrap;html=1;fillColor=none;dashed=1;" vertex="1" parent="1">
          <mxGeometry x="190" y="706" width="39" height="20" as="geometry" />
        </mxCell>
        <mxCell id="sYTXp0v7S61ZIRMOEMoK-44" value="Actor" style="shape=umlActor;verticalLabelPosition=bottom;verticalAlign=top;outlineConnect=0;align=center;labelPosition=center;fontSize=1;" vertex="1" parent="1">
          <mxGeometry x="239" y="674" width="10" height="25" as="geometry" />
        </mxCell>
        <mxCell id="sYTXp0v7S61ZIRMOEMoK-45" value="" style="rounded=0;whiteSpace=wrap;html=1;fillColor=none;dashed=1;" vertex="1" parent="1">
          <mxGeometry x="237.5" y="669" width="13" height="35" as="geometry" />
        </mxCell>
        <mxCell id="sYTXp0v7S61ZIRMOEMoK-48" value="Random sample" style="text;html=1;strokeColor=none;fillColor=none;align=center;verticalAlign=middle;whiteSpace=wrap;rounded=0;" vertex="1" parent="1">
          <mxGeometry x="161.5" y="560" width="120" height="30" as="geometry" />
        </mxCell>
        <mxCell id="sYTXp0v7S61ZIRMOEMoK-52" value="&lt;font style=&quot;font-size: 7px;&quot;&gt;repeat until current_iter &amp;gt; max_iter&lt;/font&gt;" style="html=1;verticalLabelPosition=bottom;align=center;labelBackgroundColor=#ffffff;verticalAlign=top;strokeWidth=2;strokeColor=#000000;shadow=0;dashed=0;shape=mxgraph.ios7.icons.reload;fillColor=#000000;flipV=0;flipH=1;" vertex="1" parent="1">
          <mxGeometry x="319" y="600" width="32.5" height="39" as="geometry" />
        </mxCell>
      </root>
    </mxGraphModel>
  </diagram>
</mxfile>
